<svg width="60" height="60" viewBox="0 0 60 60" fill="none" xmlns="http://www.w3.org/2000/svg">
<rect width="60" height="60" rx="10" fill="white" fill-opacity="0.3"/>
<g clip-path="url(#clip0_16_785)">
<path d="M20.2751 41.8495C19.6867 41.8837 19.108 41.6881 18.6611 41.3039C17.7796 40.4173 17.7796 38.9852 18.6611 38.0986L37.9613 18.7982C38.8781 17.9404 40.3166 17.9881 41.1745 18.9048C41.9502 19.7339 41.9954 21.0081 41.2803 21.89L21.8663 41.3039C21.4252 41.6826 20.8558 41.8778 20.2751 41.8495Z" fill="white"/>
<path d="M39.5525 41.8496C38.9562 41.847 38.3846 41.6103 37.9612 41.1903L18.6609 21.8899C17.8443 20.9363 17.9553 19.5012 18.9089 18.6846C19.76 17.9557 21.0152 17.9557 21.8662 18.6846L41.2802 37.9849C42.1967 38.843 42.2441 40.2816 41.3861 41.1981C41.3519 41.2346 41.3167 41.2698 41.2802 41.304C40.8048 41.7174 40.1792 41.9149 39.5525 41.8496Z" fill="white"/>
</g>
<defs>
<clipPath id="clip0_16_785">
<rect width="24" height="24" fill="white" transform="translate(18 18)"/>
</clipPath>
</defs>
</svg>
