<svg width="60" height="60" viewBox="0 0 60 60" fill="none" xmlns="http://www.w3.org/2000/svg">
<rect width="60" height="60" rx="10" fill="#44454F" fill-opacity="0.1"/>
<path d="M19.3187 42.9999C19.4374 44.8687 20.6749 45.9999 22.5687 45.9999H37.2937C39.4499 45.9999 40.5874 44.8937 40.7187 42.7499C41.0687 36.9749 41.9187 22.8937 41.9812 21.7437H18.0562C18.0562 21.9937 18.8937 36.2374 19.3187 42.9999Z" fill="#AFB1C0"/>
<path d="M41.9561 16.0563C40.2624 16.0438 38.5749 16.0312 36.8874 16.0625C36.7874 14.9 35.8124 14 34.6436 14H25.3561C24.1874 14 23.2124 14.9 23.1186 16.0625C21.3811 16.0312 19.6374 16.0438 17.8999 16.0563C16.9874 16.0688 16.3249 16.575 16.1061 17.375C15.7249 18.7688 16.5686 19.9188 18.0124 19.925C22.0186 19.9375 26.0186 19.9313 30.0186 19.9313H41.9436C43.2374 19.9313 43.9811 19.2063 43.9874 18C43.9936 16.7938 43.2436 16.0625 41.9561 16.0563Z" fill="#AFB1C0"/>
</svg>
