<svg width="60" height="60" viewBox="0 0 60 60" fill="none" xmlns="http://www.w3.org/2000/svg">
<rect width="60" height="60" rx="10" fill="#44454F" fill-opacity="0.1"/>
<g clip-path="url(#clip0_40_110)">
<path d="M40.1876 27.8875L40.1688 27.8688L32.1063 19.8C32.1063 19.8 22.2813 29.625 17.5438 34.4625C16.9563 35.0625 16.5063 35.9 16.2438 36.7125C15.4688 39.0875 14.8251 41.5126 14.1063 43.9063C13.9126 44.55 13.9501 45.1188 14.4563 45.5938C14.9313 46.0438 15.4688 46.0688 16.0813 45.8813C18.3688 45.1938 20.6688 44.5438 22.9626 43.8876C24.1688 43.5438 25.1813 42.9063 26.0688 42.0126C30.5813 37.4876 40.1876 27.8875 40.1876 27.8875Z" fill="#AFB1C0"/>
<path d="M44.8937 17.8625L42.1374 15.1063C40.6624 13.6313 38.2812 13.6313 36.8062 15.1063L33.6812 18.2312L41.7687 26.3188L44.8937 23.1938C46.3687 21.725 46.3687 19.3375 44.8937 17.8625Z" fill="#AFB1C0"/>
</g>
<defs>
<clipPath id="clip0_40_110">
<rect width="32" height="32" fill="white" transform="translate(14 14)"/>
</clipPath>
</defs>
</svg>
